<?xml version="1.0" encoding="UTF-8"?>
<svg xmlns="http://www.w3.org/2000/svg" viewBox="0 0 248 88" fill="none" role="img" aria-labelledby="logo-header-title">
  <title id="logo-header-title">Skin by Emely</title>
  <path fill="#171717" d="M26.18 11.86Q29.95 11.86 32 12.66Q34.05 13.46 35.52 14.35Q36.29 14.80 36.77 15.02Q37.25 15.25 37.70 15.25Q38.34 15.25 38.62 14.54Q38.91 13.84 39.10 12.43L40.58 12.43Q40.51 13.65 40.42 15.34Q40.32 17.04 40.29 19.79Q40.26 22.54 40.26 27.02L38.78 27.02Q38.53 23.70 37.25 20.56Q35.97 17.42 33.63 15.41Q31.30 13.39 27.90 13.39Q24.83 13.39 22.85 15.12Q20.86 16.85 20.86 19.92Q20.86 22.48 22.14 24.30Q23.42 26.13 25.89 27.86Q28.35 29.58 31.87 32.02Q34.94 34 37.38 35.98Q39.81 37.97 41.28 40.46Q42.75 42.96 42.75 46.42Q42.75 50.64 40.54 53.39Q38.34 56.14 34.75 57.52Q31.17 58.90 26.88 58.90Q22.91 58.90 20.54 58.13Q18.18 57.36 16.58 56.53Q15.17 55.63 14.40 55.63Q13.76 55.63 13.47 56.34Q13.18 57.04 12.99 58.45L11.52 58.45Q11.65 56.91 11.68 54.86Q11.71 52.82 11.74 49.52Q11.78 46.22 11.78 41.17L13.25 41.17Q13.50 45.39 14.69 49.07Q15.87 52.75 18.34 54.99Q20.80 57.23 24.90 57.23Q27.14 57.23 28.90 56.43Q30.66 55.63 31.74 54.03Q32.83 52.43 32.83 50.06Q32.83 47.38 31.58 45.39Q30.34 43.41 28.19 41.68Q26.05 39.95 23.23 38.16Q20.22 36.18 17.60 34.19Q14.98 32.21 13.41 29.65Q11.84 27.09 11.84 23.57Q11.84 19.54 13.86 16.94Q15.87 14.35 19.17 13.10Q22.46 11.86 26.18 11.86M89.47 12.69L89.47 13.90Q87.42 14.35 85.09 15.70Q82.75 17.04 80.19 20.05L68.16 34.38L71.87 29.07L87.10 52.82Q88 54.29 89.02 55.18Q90.05 56.08 91.71 56.72L91.71 58Q89.47 57.87 86.72 57.84Q83.97 57.81 81.73 57.81Q80.38 57.81 78.46 57.84Q76.54 57.87 73.60 58L73.60 56.72Q76.22 56.59 76.77 55.98Q77.31 55.38 76.29 53.84L67.01 38.80Q66.11 37.33 65.41 36.59Q64.70 35.86 64 35.57Q63.30 35.28 62.14 35.22L62.14 33.87Q64.96 33.81 67.17 32.34Q69.38 30.86 72 27.86L75.78 23.31Q78.21 20.43 78.62 18.35Q79.04 16.27 77.79 15.12Q76.54 13.97 73.98 13.90L73.98 12.69Q75.58 12.75 77.02 12.78Q78.46 12.82 80.03 12.85Q81.60 12.88 83.46 12.88Q85.31 12.88 86.82 12.82Q88.32 12.75 89.47 12.69M67.33 12.69L67.33 13.97Q65.28 14.03 64.22 14.45Q63.17 14.86 62.85 15.98Q62.53 17.10 62.53 19.47L62.53 51.22Q62.53 53.52 62.88 54.67Q63.23 55.82 64.26 56.21Q65.28 56.59 67.33 56.72L67.33 58Q65.60 57.87 62.98 57.84Q60.35 57.81 57.66 57.81Q54.59 57.81 51.87 57.84Q49.15 57.87 47.55 58L47.55 56.72Q49.60 56.59 50.62 56.21Q51.65 55.82 52 54.67Q52.35 53.52 52.35 51.22L52.35 19.47Q52.35 17.10 52 15.98Q51.65 14.86 50.59 14.45Q49.54 14.03 47.55 13.97L47.55 12.69Q49.15 12.75 51.87 12.82Q54.59 12.88 57.66 12.88Q60.35 12.88 62.98 12.82Q65.60 12.75 67.33 12.69M113.02 12.69L113.02 13.97Q110.98 14.03 109.92 14.45Q108.86 14.86 108.54 15.98Q108.22 17.10 108.22 19.47L108.22 51.22Q108.22 53.52 108.58 54.67Q108.93 55.82 109.95 56.21Q110.98 56.59 113.02 56.72L113.02 58Q111.30 57.87 108.67 57.84Q106.05 57.81 103.36 57.81Q100.22 57.81 97.57 57.84Q94.91 57.87 93.25 58L93.25 56.72Q95.30 56.59 96.32 56.21Q97.34 55.82 97.70 54.67Q98.05 53.52 98.05 51.22L98.05 19.47Q98.05 17.10 97.70 15.98Q97.34 14.86 96.29 14.45Q95.23 14.03 93.25 13.97L93.25 12.69Q94.91 12.75 97.57 12.82Q100.22 12.88 103.36 12.88Q106.05 12.88 108.67 12.82Q111.30 12.75 113.02 12.69M159.49 12.69L159.49 13.97Q157.44 14.22 156.42 15.02Q155.39 15.82 155.04 17.55Q154.69 19.28 154.69 22.42L154.69 58.13Q153.92 58.06 153.12 58.06Q152.32 58.06 151.42 58.13L123.65 22.93L123.65 47.50Q123.65 51.02 124.03 52.91Q124.42 54.80 125.73 55.60Q127.04 56.40 129.86 56.72L129.86 58Q128.64 57.87 126.66 57.84Q124.67 57.81 122.94 57.81Q121.47 57.81 119.94 57.84Q118.40 57.87 117.38 58L117.38 56.72Q119.42 56.40 120.45 55.63Q121.47 54.86 121.82 53.10Q122.18 51.34 122.18 48.27L122.18 19.47Q122.18 17.10 121.82 15.98Q121.47 14.86 120.42 14.45Q119.36 14.03 117.38 13.97L117.38 12.69Q118.40 12.75 119.94 12.82Q121.47 12.88 122.94 12.88Q124.48 12.88 125.89 12.82Q127.30 12.75 128.45 12.69L153.22 43.22L153.22 23.18Q153.22 19.66 152.83 17.78Q152.45 15.89 151.14 15.06Q149.82 14.22 147.01 13.97L147.01 12.69Q148.22 12.75 150.21 12.82Q152.19 12.88 153.92 12.88Q155.46 12.88 156.96 12.82Q158.46 12.75 159.49 12.69"/>
  <path fill="#737373" d="M94.40 78.84Q94.10 78.84 93.69 78.78Q93.29 78.72 92.99 78.63Q92.69 78.54 92.69 78.48Q92.69 78.42 92.97 78.38Q93.26 78.33 93.98 78.33Q94.73 78.33 95.61 77.95Q96.50 77.58 97.31 77.07Q98.12 76.56 98.69 76.17Q99.59 75.51 100.55 74.47Q101.51 73.44 101.90 72.21Q101.96 72 102.05 71.64Q102.14 71.28 102.14 70.92Q102.14 70.59 102.02 70.36Q101.90 70.14 101.57 70.14Q100.97 70.14 100.33 70.47Q99.68 70.80 99.09 71.23Q98.51 71.67 98.09 72.06Q97.73 72.33 97.22 72.87Q96.71 73.41 96.22 74.07Q95.72 74.73 95.42 75.38Q95.12 76.02 95.21 76.53Q95.27 76.65 95.14 77.01Q95 77.37 94.67 77.37Q94.40 77.37 94.04 76.86Q93.83 76.62 93.83 75.87Q93.83 75.18 93.98 74.37Q94.13 73.56 94.25 73.05Q93.95 73.41 93.72 73.81Q93.50 74.22 92.81 75Q92.69 75.12 92.54 75.12Q92.33 75.12 92.33 74.88Q92.33 74.70 92.45 74.58Q93.53 73.20 94.27 72.22Q95 71.25 95.18 70.83Q95.42 70.20 95.83 69.21Q96.23 68.22 96.74 67.09Q97.25 65.97 97.79 64.91Q98.33 63.84 98.84 63.06Q99.29 62.37 99.89 61.66Q100.49 60.96 101.24 60.50Q101.99 60.03 102.86 60.03Q103.19 60.03 103.58 60.12Q103.61 60.12 103.73 60.18L104.03 60.27Q104.09 60.30 104.12 60.30Q104.15 60.30 104.18 60.33Q105.02 60.84 105.02 61.74Q105.02 62.46 104.54 63.36Q104.12 64.20 103.17 65.30Q102.23 66.39 101.02 67.52Q99.80 68.64 98.53 69.67Q97.25 70.71 96.20 71.43Q95.90 72 95.66 72.75Q95.42 73.50 95.27 74.25Q95.87 73.38 96.62 72.56Q97.37 71.73 97.94 71.25Q98.87 70.47 99.75 70Q100.64 69.54 101.39 69.54Q101.75 69.54 102.28 69.78Q102.80 70.02 103.23 70.39Q103.67 70.77 103.73 71.19Q103.73 71.28 103.75 71.36Q103.76 71.43 103.76 71.52Q103.76 72.33 103.31 73.17Q102.86 74.01 102.19 74.76Q101.51 75.51 100.78 76.11Q100.04 76.71 99.47 77.10Q98.33 77.85 97.06 78.34Q95.78 78.84 94.40 78.84M96.53 70.23Q97.91 69.33 99.29 68.10Q100.67 66.87 101.86 65.52Q103.04 64.17 103.76 63Q104.21 62.28 104.21 61.59Q104.21 61.26 104.08 61.03Q103.94 60.81 103.64 60.81Q103.43 60.81 103.14 60.93Q102.86 61.05 102.53 61.35Q101.27 62.31 100.19 63.75Q99.11 65.19 98.21 66.86Q97.31 68.52 96.53 70.23M103.40 89.01Q103.04 88.92 102.77 88.83Q102.20 88.53 101.96 88.16Q101.72 87.78 101.72 87.36Q101.72 86.67 102.18 85.88Q102.65 85.08 103.40 84.24Q104.15 83.34 105.30 82.41Q106.46 81.48 107.72 80.63Q108.98 79.77 109.94 79.14Q110.45 78.09 111 76.89Q111.56 75.69 112.07 74.56Q112.58 73.44 112.95 72.51Q113.33 71.58 113.51 71.07Q113.03 71.64 112.40 72.50Q111.77 73.35 111.02 74.30Q110.27 75.24 109.47 76.08Q108.68 76.92 107.84 77.44Q107 77.97 106.19 77.97Q104.99 77.97 104.52 77.36Q104.06 76.74 104.06 75.90Q104.06 75.30 104.22 74.70Q104.39 74.10 104.66 73.59Q104.84 73.23 105.23 72.63Q105.62 72.03 106.13 71.40Q106.64 70.77 107.16 70.35Q107.69 69.93 108.17 69.93Q108.74 69.93 109.04 70.33Q109.34 70.74 109.10 70.89Q108.62 71.22 107.91 71.89Q107.21 72.57 106.52 73.44Q106.34 73.68 106.08 74.19Q105.83 74.70 105.62 75.28Q105.41 75.87 105.41 76.35Q105.41 76.56 105.47 76.75Q105.53 76.95 105.68 77.04Q105.92 77.22 106.22 77.22Q106.64 77.22 107.16 76.95Q107.69 76.68 108.17 76.26Q109.85 74.64 111.17 72.87Q112.49 71.10 113.96 69.36Q114.05 69.06 114.47 69.06Q114.95 69.06 115.47 69.34Q116 69.63 115.91 69.81Q115.64 70.41 115.20 71.40Q114.77 72.39 114.26 73.53Q113.75 74.67 113.24 75.80Q112.73 76.92 112.31 77.82Q112.67 77.64 113.60 76.92Q114.53 76.20 115.64 75.17Q116.75 74.13 117.65 73.02Q117.83 72.84 117.92 72.84Q118.10 72.84 118.10 73.08Q118.10 73.29 117.92 73.56Q117.47 74.16 116.67 74.97Q115.88 75.78 114.96 76.61Q114.05 77.43 113.18 78.11Q112.31 78.78 111.68 79.14Q110.75 81.12 109.88 82.88Q109.01 84.63 108.29 85.71Q107.81 86.46 107.12 87.24Q106.43 88.02 105.62 88.55Q104.81 89.07 103.91 89.07Q103.79 89.07 103.67 89.06Q103.55 89.04 103.40 89.01M103.49 88.35Q103.73 88.35 104.07 88.20Q104.42 88.05 104.81 87.72Q105.95 86.79 106.73 85.55Q107.51 84.30 108.13 82.92Q108.74 81.54 109.37 80.28Q108.20 81.15 106.73 82.33Q105.26 83.52 104.06 84.69Q103.34 85.41 103.01 86.11Q102.68 86.82 102.68 87.36Q102.68 88.35 103.49 88.35M130.01 79.86Q128.75 79.86 127.55 79.65Q126.35 79.44 125.36 78.94Q124.37 78.45 123.78 77.56Q123.20 76.68 123.20 75.30Q123.20 73.80 123.92 72.77Q124.64 71.73 125.81 71.08Q126.98 70.44 128.34 70.08Q129.71 69.72 131.01 69.56Q132.32 69.39 133.31 69.36Q132.41 68.31 131.69 66.72Q130.97 65.13 130.97 63.63Q130.97 63.09 131.09 62.58Q131.21 62.07 131.48 61.62Q131.78 61.08 132.44 60.70Q133.10 60.33 133.88 60.12Q134.66 59.91 135.32 59.91Q136.43 59.91 137.15 60.50Q137.87 61.08 138.50 61.68Q138.65 61.83 138.88 62.02Q139.10 62.22 139.37 62.31Q139.49 62.34 139.66 62.36Q139.82 62.37 139.94 62.46Q140.18 62.67 140.38 63.09Q140.57 63.51 140.69 63.84Q140.87 64.32 140.87 65.10Q140.87 65.70 140.73 66.21Q140.60 66.72 140.33 66.72Q140.18 66.72 139.94 66.45Q139.58 66.03 139.43 65.33Q139.28 64.62 138.98 64.05Q138.62 63.27 138.20 62.61Q137.78 61.95 137.18 61.47Q136.94 61.20 136.47 60.93Q136.01 60.66 135.41 60.66Q134.96 60.66 134.66 60.81Q133.61 61.23 133.17 62.19Q132.74 63.15 132.74 64.29Q132.74 65.67 133.19 67.03Q133.64 68.40 134.21 69.12Q134.36 69.30 134.94 69.34Q135.53 69.39 135.77 69.45Q136.25 69.48 136.46 69.66Q136.67 69.84 136.67 70.05Q136.67 70.38 136.28 70.62Q136.13 70.77 135.77 70.77Q135.26 70.77 134.63 70.58Q134 70.38 133.58 70.29Q132.68 70.32 131.51 70.59Q130.34 70.86 129.13 71.36Q127.91 71.85 126.87 72.57Q125.84 73.29 125.19 74.20Q124.55 75.12 124.52 76.20Q124.49 77.40 125.45 78.27Q126.41 79.14 128.96 79.14Q130.16 79.14 131.54 78.93Q132.92 78.72 134.25 78.38Q135.59 78.03 136.73 77.64Q137.87 77.25 138.59 76.86Q139.16 76.59 139.97 76.03Q140.78 75.48 141.57 74.76Q142.37 74.04 142.89 73.28Q143.42 72.51 143.42 71.79Q143.42 71.73 143.42 71.64Q143.42 71.55 143.39 71.49Q143.36 71.37 143.51 71.37Q143.66 71.37 143.72 71.43Q144.14 72.03 144.14 72.75Q144.14 73.71 143.46 74.64Q142.79 75.57 141.86 76.32Q140.93 77.07 140.15 77.49Q139.22 78.03 137.91 78.47Q136.61 78.90 135.19 79.22Q133.76 79.53 132.41 79.69Q131.06 79.86 130.01 79.86M144.65 78.39Q144.41 78.39 144.50 78.18Q144.62 77.97 144.93 77.11Q145.25 76.26 145.65 75.09Q146.06 73.92 146.45 72.84Q146.15 73.29 145.80 73.71Q145.46 74.13 145.22 74.40Q145.13 74.49 145.10 74.49Q145.01 74.49 145.01 74.31Q145.01 73.95 145.19 73.65Q145.82 72.84 146.15 72.38Q146.48 71.91 146.70 71.53Q146.93 71.16 147.17 70.68Q147.23 70.35 147.39 69.87Q147.56 69.39 148.19 69.39Q149.12 69.39 149.12 69.78Q149.12 69.90 149.06 70.03Q149 70.17 148.94 70.32Q148.58 71.13 148.16 72.18Q147.74 73.23 147.39 74.16Q147.05 75.09 146.87 75.60Q147.20 75.18 147.86 74.42Q148.52 73.65 149.37 72.73Q150.23 71.82 151.14 71Q152.06 70.17 152.87 69.63Q153.68 69.09 154.25 69.09Q154.94 69.09 154.94 69.87Q154.94 70.47 154.46 71.43Q154.25 71.88 153.89 72.64Q153.53 73.41 153.32 73.80Q153.86 73.32 154.55 72.73Q155.24 72.15 156 71.64Q156.77 71.13 157.43 70.89Q157.58 70.83 158.03 70.69Q158.48 70.56 158.81 70.56Q159.26 70.56 159.26 70.86Q159.26 71.07 159.05 71.31Q158.54 72.09 158.13 72.97Q157.73 73.86 157.49 74.64Q157.25 75.42 157.19 75.90Q157.16 76.02 157.16 76.13Q157.16 76.23 157.16 76.35Q157.16 77.55 157.94 77.55Q158.42 77.55 159.17 77.03Q159.92 76.50 160.70 75.73Q161.48 74.97 162.12 74.27Q162.77 73.56 163.01 73.20Q163.10 73.11 163.19 73.11Q163.31 73.11 163.38 73.20Q163.46 73.29 163.40 73.44Q163.13 73.95 162.48 74.72Q161.84 75.48 161.04 76.25Q160.25 77.01 159.50 77.55Q159.11 77.85 158.52 78.08Q157.94 78.30 157.34 78.30Q156.80 78.30 156.36 78.06Q155.93 77.82 155.72 77.16Q155.63 76.89 155.63 76.47Q155.63 75.81 155.81 74.97Q155.99 74.13 156.20 73.56Q156.35 73.14 156.60 72.61Q156.86 72.09 157.07 71.73Q156.14 72.09 155.27 72.81Q154.40 73.53 153.69 74.27Q152.99 75 152.51 75.48Q152.39 75.81 152.04 76.02Q151.70 76.23 151.40 76.23Q150.95 76.23 150.95 75.84Q150.95 75.69 151.04 75.48Q151.34 74.76 151.71 74Q152.09 73.23 152.40 72.60Q152.72 71.97 152.84 71.73Q153.08 71.31 153.08 71.07Q153.08 70.83 152.87 70.83Q152.66 70.83 152.18 71.10Q151.70 71.37 150.92 72.06Q150.29 72.63 149.54 73.55Q148.79 74.46 148.10 75.42Q147.41 76.38 146.88 77.07Q146.36 77.76 146.15 77.88Q145.97 77.97 145.44 78.18Q144.92 78.39 144.65 78.39M165.38 78.45Q164.03 78.45 163.04 77.82Q162.05 77.19 162.05 75.90Q162.05 75.21 162.47 74.22Q162.77 73.53 163.58 72.63Q164.39 71.73 165.47 70.88Q166.55 70.02 167.66 69.47Q168.77 68.91 169.67 68.91Q170 68.91 170.27 69Q170.78 69.18 170.97 69.57Q171.17 69.96 171.17 70.38Q171.17 70.77 171.05 71.13Q170.93 71.49 170.75 71.76Q170.21 72.57 169.20 73.20Q168.20 73.83 167.16 74.19Q166.13 74.55 165.47 74.61L165.41 74.61Q165.02 74.61 165.02 74.37Q165.02 74.22 165.26 74.22Q165.98 74.16 167.07 73.55Q168.17 72.93 169.01 72.27Q169.37 71.97 169.86 71.43Q170.36 70.89 170.36 70.38Q170.36 69.84 169.85 69.84Q169.58 69.84 169.29 69.96Q169.01 70.08 168.83 70.14Q167.96 70.56 166.91 71.44Q165.86 72.33 165 73.42Q164.15 74.52 163.82 75.63Q163.73 75.87 163.70 76.09Q163.67 76.32 163.67 76.53Q163.67 77.25 164.13 77.55Q164.60 77.85 165.26 77.85Q166.25 77.85 167.30 77.42Q168.35 76.98 169.34 76.29Q170.33 75.60 171.16 74.81Q171.98 74.01 172.55 73.26Q172.64 73.14 172.76 73.13Q172.88 73.11 172.91 73.17Q173.03 73.20 173.03 73.33Q173.03 73.47 172.97 73.59Q172.13 74.76 170.94 75.87Q169.76 76.98 168.33 77.72Q166.91 78.45 165.38 78.45M174.14 78.30Q172.88 78.30 172.38 77.67Q171.89 77.04 171.89 76.11Q171.89 75.24 172.29 73.92Q172.70 72.60 173.36 71.07Q174.02 69.54 174.78 68.03Q175.55 66.51 176.31 65.23Q177.08 63.96 177.65 63.18Q178.22 62.43 178.88 61.68Q179.54 60.93 180.35 60.42Q181.16 59.91 182.18 59.91Q182.87 59.91 183.36 60.28Q183.86 60.66 183.86 61.41Q183.86 61.71 183.75 62.10Q183.65 62.49 183.41 62.91Q181.58 66.09 179.04 68.79Q176.51 71.49 173.69 73.80Q173.57 74.25 173.46 74.61Q173.36 74.97 173.30 75.18Q173.27 75.33 173.27 75.50Q173.27 75.66 173.27 75.81Q173.27 76.53 173.51 77.07Q173.75 77.61 174.32 77.61Q174.86 77.61 175.65 77.08Q176.45 76.56 177.26 75.80Q178.07 75.03 178.73 74.31Q179.39 73.59 179.66 73.20Q179.75 73.11 179.84 73.11Q179.96 73.11 180.03 73.23Q180.11 73.35 180.02 73.53Q179.72 74.04 179.06 74.79Q178.40 75.54 177.59 76.31Q176.78 77.07 176.03 77.64Q175.10 78.30 174.14 78.30M174.11 72.60Q175.25 71.82 176.48 70.58Q177.71 69.33 178.89 67.86Q180.08 66.39 181.05 64.95Q182.03 63.51 182.63 62.34Q182.81 62.01 182.88 61.75Q182.96 61.50 182.96 61.29Q182.96 60.72 182.48 60.72Q182.06 60.72 181.43 61.17Q179.81 62.43 178.43 64.39Q177.05 66.36 175.97 68.52Q174.89 70.68 174.11 72.60M177.98 89.01Q177.62 88.92 177.35 88.83Q176.78 88.53 176.54 88.16Q176.30 87.78 176.30 87.36Q176.30 86.67 176.76 85.88Q177.23 85.08 177.98 84.24Q178.73 83.34 179.88 82.41Q181.04 81.48 182.30 80.63Q183.56 79.77 184.52 79.14Q185.03 78.09 185.58 76.89Q186.14 75.69 186.65 74.56Q187.16 73.44 187.53 72.51Q187.91 71.58 188.09 71.07Q187.61 71.64 186.98 72.50Q186.35 73.35 185.60 74.30Q184.85 75.24 184.05 76.08Q183.26 76.92 182.42 77.44Q181.58 77.97 180.77 77.97Q179.57 77.97 179.10 77.36Q178.64 76.74 178.64 75.90Q178.64 75.30 178.80 74.70Q178.97 74.10 179.24 73.59Q179.42 73.23 179.81 72.63Q180.20 72.03 180.71 71.40Q181.22 70.77 181.75 70.35Q182.27 69.93 182.75 69.93Q183.32 69.93 183.62 70.33Q183.92 70.74 183.68 70.89Q183.20 71.22 182.50 71.89Q181.79 72.57 181.10 73.44Q180.92 73.68 180.66 74.19Q180.41 74.70 180.20 75.28Q179.99 75.87 179.99 76.35Q179.99 76.56 180.05 76.75Q180.11 76.95 180.26 77.04Q180.50 77.22 180.80 77.22Q181.22 77.22 181.75 76.95Q182.27 76.68 182.75 76.26Q184.43 74.64 185.75 72.87Q187.07 71.10 188.54 69.36Q188.63 69.06 189.05 69.06Q189.53 69.06 190.05 69.34Q190.58 69.63 190.49 69.81Q190.22 70.41 189.78 71.40Q189.35 72.39 188.84 73.53Q188.33 74.67 187.82 75.80Q187.31 76.92 186.89 77.82Q187.25 77.64 188.18 76.92Q189.11 76.20 190.22 75.17Q191.33 74.13 192.23 73.02Q192.41 72.84 192.50 72.84Q192.68 72.84 192.68 73.08Q192.68 73.29 192.50 73.56Q192.05 74.16 191.25 74.97Q190.46 75.78 189.54 76.61Q188.63 77.43 187.76 78.11Q186.89 78.78 186.26 79.14Q185.33 81.12 184.46 82.88Q183.59 84.63 182.87 85.71Q182.39 86.46 181.70 87.24Q181.01 88.02 180.20 88.55Q179.39 89.07 178.49 89.07Q178.37 89.07 178.25 89.06Q178.13 89.04 177.98 89.01M178.07 88.35Q178.31 88.35 178.66 88.20Q179 88.05 179.39 87.72Q180.53 86.79 181.31 85.55Q182.09 84.30 182.70 82.92Q183.32 81.54 183.95 80.28Q182.78 81.15 181.31 82.33Q179.84 83.52 178.64 84.69Q177.92 85.41 177.59 86.11Q177.26 86.82 177.26 87.36Q177.26 88.35 178.07 88.35"/>
</svg>
