<?xml version="1.0" encoding="UTF-8"?>
<svg xmlns="http://www.w3.org/2000/svg" viewBox="0 0 248 88" fill="none" role="img" aria-labelledby="logo-header-title">
  <title id="logo-header-title">Skin by Emely</title>
  <path fill="#171717" d="M28.32 58.93Q24.77 58.93 22.08 57.79Q19.39 56.66 17.41 54.70L12.22 58.64L11.07 58.64L11.07 43.57L12.35 43.57Q13.22 46.19 14.54 48.70Q15.87 51.22 17.73 53.23Q19.58 55.25 22.08 56.45Q24.58 57.65 27.87 57.65Q30.91 57.65 33.12 56.56Q35.33 55.47 36.51 53.50Q37.70 51.54 37.70 48.88Q37.70 46.29 36.30 44.53Q34.91 42.77 32.62 41.50Q30.34 40.24 27.58 39.10Q24.83 37.97 22.10 36.66Q19.36 35.34 17.06 33.47Q14.75 31.60 13.36 28.86Q11.97 26.13 11.97 22.16Q11.97 18.16 13.95 15.30Q15.94 12.43 19.20 10.90Q22.46 9.36 26.21 9.36Q29.06 9.36 31.50 10.27Q33.95 11.18 35.87 12.94L40.96 9.36L42.02 9.36L42.02 23.79L40.77 23.79Q39.49 19.73 37.52 16.80Q35.55 13.87 32.85 12.29Q30.14 10.70 26.69 10.70Q22.88 10.70 20.83 12.62Q18.78 14.54 18.78 17.68Q18.78 20.02 20.16 21.63Q21.54 23.25 23.81 24.50Q26.08 25.74 28.82 26.91Q31.55 28.08 34.27 29.47Q36.99 30.86 39.26 32.80Q41.54 34.74 42.91 37.50Q44.29 40.27 44.29 44.24Q44.29 48.72 42.18 52.02Q40.06 55.31 36.45 57.12Q32.83 58.93 28.32 58.93M58.11 44.11L56.32 44.11L84.42 11.25L77.63 11.25L77.63 10L92.99 10L92.99 11.25L86.21 11.25L58.11 44.11M69.63 58L48.16 58L48.16 56.75L53.95 56.75L53.95 11.25L48.16 11.25L48.16 10L70.27 10L70.27 11.25L63.90 11.25L63.90 56.75L69.63 56.75L69.63 58M95.87 58L72.83 58L72.83 56.75L78.66 56.75L65.60 33.78L72.19 26.42L90.14 56.75L95.87 56.75L95.87 58M122.72 58L98.05 58L98.05 56.75L105.12 56.75L105.12 11.25L98.05 11.25L98.05 10L122.72 10L122.72 11.25L115.04 11.25L115.04 56.75L122.72 56.75L122.72 58M125.60 10L133.47 10L133.47 56.75L140.90 56.75L140.90 58L125.60 58L125.60 56.75L132.16 56.75L132.16 11.25L125.60 11.25L125.60 10M157.57 10L172.80 10L172.80 11.25L166.08 11.25L166.08 58.64L164.32 58.64L132.58 10L144.42 10L164.77 41.62L164.77 11.25L157.57 11.25"/>
  <path fill="#737373" d="M93.88 78.15Q92.91 78.15 92.45 77.58Q92 77.02 92 76.26Q92 74.85 92.97 73.06Q93.95 71.28 95.59 68.80Q96.37 67.64 97.49 66.18Q98.62 64.71 99.95 63.15Q101.29 61.58 102.71 60.11Q104.13 58.63 105.51 57.45Q106.88 56.26 108.08 55.57Q109.27 54.87 110.13 54.87Q111.20 54.87 111.20 55.71Q111.20 56.85 110.33 58.38Q109.45 59.91 107.79 61.56Q106.14 63.21 103.82 64.71Q101.51 66.22 98.65 67.35Q96.39 70.12 95.12 71.92Q93.85 73.72 93.33 74.81Q92.81 75.89 92.81 76.54Q92.81 77.30 93.15 77.54Q93.49 77.78 93.90 77.78Q95.33 77.78 96.89 76.84Q98.46 75.91 99.53 73.99Q99.95 73.47 100.17 72.76Q100.38 72.05 100.46 71.47Q100.54 70.90 100.54 70.79Q100.55 70.37 100.45 70.11Q100.35 69.86 100.36 69.52Q100.39 69.17 100.58 68.79Q100.76 68.41 101.27 68.41Q101.73 68.41 101.93 68.80Q102.14 69.20 102.12 69.75Q102.11 69.94 102.09 70.14Q102.06 70.34 102 70.53Q101.76 71.53 101.46 72.28Q101.17 73.03 100.75 73.69Q100.73 73.80 100.73 73.91Q100.73 74.02 100.73 74.13Q100.73 74.37 100.86 74.62Q100.99 74.88 101.55 74.91Q102.03 74.91 102.59 74.56Q103.15 74.21 103.67 73.71Q104.19 73.21 104.60 72.75Q105.01 72.29 105.18 72.05L105.49 72.30Q105.26 72.57 104.82 73.06Q104.39 73.55 103.84 74.06Q103.29 74.57 102.71 74.92Q102.12 75.28 101.55 75.28Q100.92 75.28 100.65 75Q100.38 74.72 100.33 74.25Q99.95 74.75 99.40 75.29Q97.96 76.89 96.45 77.52Q94.93 78.15 93.88 78.15M100.42 65.21L99.13 66.76Q100.99 66.05 102.71 64.93Q104.42 63.81 105.88 62.50Q107.34 61.20 108.42 59.90Q109.50 58.61 110.11 57.50Q110.71 56.39 110.71 55.71Q110.71 55.18 110.13 55.18Q109.45 55.18 108.42 56.03Q107.40 56.89 106.12 58.33Q104.85 59.78 103.40 61.56Q101.96 63.35 100.42 65.21M96.67 89.53Q96.04 89.53 95.72 89.21Q95.40 88.88 95.40 88.55Q95.40 87.76 96.31 86.80Q97.23 85.84 99.49 84.58Q101.76 83.32 105.77 81.63Q106.99 80.15 108.45 78.28Q109.92 76.40 111.73 74.07L111.57 74.02Q110.75 74.89 109.51 75.82Q108.27 76.75 106.93 77.39Q105.58 78.03 104.39 78.03Q102.75 78.03 102.75 76.81Q102.75 76.29 102.94 75.74Q103.12 75.19 103.65 74.31Q104.19 73.43 105.26 71.92Q105.93 71.10 106.88 70.13Q107.82 69.17 108.92 68.05Q109.39 68.10 109.61 68.12Q109.84 68.14 110.18 68.14Q110.82 68.14 111.22 68.10Q110.21 69.01 109.60 69.64Q108.99 70.28 108.50 70.86Q108.01 71.44 107.32 72.17Q106.99 72.55 106.40 73.20Q105.81 73.84 105.21 74.56Q104.60 75.29 104.18 75.93Q103.76 76.58 103.76 76.97Q103.76 77.46 104.03 77.55Q104.29 77.65 104.51 77.65Q105.83 77.65 107.23 76.89Q108.63 76.14 109.92 74.99Q111.20 73.84 112.19 72.64Q113.68 71 114.58 69.91Q115.48 68.83 116.07 68.10Q116.23 68.13 116.48 68.16Q116.73 68.20 116.98 68.20Q117.17 68.20 117.50 68.19Q117.84 68.17 118.03 68.14L112.93 74.43Q111.54 76.32 110.35 77.90Q109.15 79.48 108.11 80.80Q110.13 79.83 111.50 78.97Q112.87 78.12 113.93 77.17Q114.98 76.23 116.04 75Q117.09 73.77 118.50 72.05L118.81 72.30Q117.59 73.77 116.63 74.87Q115.67 75.96 114.79 76.83Q113.91 77.69 112.92 78.43Q111.92 79.17 110.65 79.89Q109.37 80.61 107.60 81.44Q105.54 84.05 104.02 85.65Q102.50 87.24 101.30 88.09Q100.10 88.93 99 89.23Q97.90 89.53 96.67 89.53M96.73 89.13Q97.55 89.13 98.34 88.84Q99.13 88.55 100.08 87.81Q101.02 87.07 102.28 85.72Q103.53 84.37 105.26 82.26Q101.92 83.68 99.84 84.80Q97.77 85.91 96.82 86.81Q95.87 87.71 95.87 88.55Q95.87 88.71 96.07 88.92Q96.28 89.13 96.73 89.13M129.85 82.17Q129.79 82.17 129.71 82.15Q129.63 82.12 129.50 81.97Q129.22 81.66 129.03 81.03Q128.84 80.40 128.75 79.68Q128.65 78.97 128.62 78.41L128.62 77.99Q126.61 77.77 125.44 76.71Q124.27 75.66 124.24 74.16Q124.21 72.74 124.87 71.45Q125.53 70.16 126.73 69.15Q127.93 68.14 129.54 67.56Q131.16 66.98 133.04 66.98L133.13 66.98Q132.74 66.44 132.56 65.74Q130.28 65.24 128.83 64.17Q127.38 63.10 126.75 61.70Q126.69 61.59 126.67 61.48Q126.66 61.37 126.66 61.33Q126.66 61.15 126.78 61.15Q126.94 61.15 127.08 61.51Q128.40 64.51 132.49 65.34Q132.47 65.24 132.47 65.01Q132.46 63.29 133.26 61.91Q134.06 60.52 135.38 59.53Q136.71 58.53 138.29 58Q139.87 57.48 141.39 57.48Q143.77 57.48 145.09 58.32Q146.40 59.16 146.40 60.67Q146.40 61.80 145.59 62.79Q144.78 63.78 143.36 64.52Q141.95 65.26 140.11 65.67Q138.26 66.09 136.19 66.09Q134.86 66.09 133.79 65.94Q133.91 66.49 134.28 67.04Q135.71 67.19 136.45 67.61Q137.19 68.04 137.21 68.49Q137.21 68.96 136.44 68.96Q135.80 68.96 135 68.57Q134.20 68.19 133.56 67.51Q132.12 67.67 130.73 68.37Q129.34 69.06 128.21 70.10Q127.08 71.13 126.42 72.32Q125.75 73.50 125.76 74.63Q125.79 75.80 126.53 76.59Q127.26 77.38 128.65 77.60Q128.77 76.29 129.33 75.03Q129.90 73.78 130.79 72.79Q131.68 71.79 132.79 71.20Q133.89 70.60 135.10 70.60Q136 70.60 136.69 71.20Q137.38 71.80 137.38 72.62Q137.38 74.15 136.34 75.38Q135.30 76.61 133.54 77.32Q131.77 78.03 129.59 78.03Q129.44 78.03 129.32 78.02Q129.19 78.01 129.06 78.01Q129.05 78.12 129.05 78.23Q129.05 78.34 129.05 78.45Q129.05 79 129.15 79.68Q129.25 80.36 129.44 80.94Q129.63 81.53 129.88 81.82Q130.03 81.98 130.03 82.04Q130.03 82.17 129.85 82.17M135.93 65.67Q137.57 65.67 139.31 65.29Q141.06 64.92 142.54 64.21Q144.03 63.50 144.95 62.49Q145.86 61.49 145.86 60.23Q145.86 59.24 144.81 58.54Q143.75 57.84 141.92 57.84Q140.41 57.84 138.95 58.58Q137.48 59.32 136.31 60.48Q135.14 61.64 134.44 62.93Q133.73 64.23 133.73 65.34L133.73 65.55Q134.25 65.61 134.80 65.64Q135.34 65.67 135.93 65.67M136.66 68.63Q136.90 68.63 136.90 68.45Q136.88 68.20 136.22 67.87Q135.56 67.54 134.60 67.48Q135.05 68 135.61 68.31Q136.17 68.63 136.66 68.63M129.68 77.68Q130.83 77.68 132.06 77.13Q133.29 76.58 134.35 75.72Q135.40 74.87 136.06 73.93Q136.71 72.99 136.71 72.23Q136.71 71.63 136.25 71.30Q135.80 70.97 135.13 70.97Q133.91 70.97 132.58 71.80Q131.26 72.62 130.27 74.13Q129.28 75.63 129.08 77.65Q129.22 77.66 129.38 77.67Q129.53 77.68 129.68 77.68M153.58 78.07Q152.79 78.07 152.21 77.76Q151.62 77.44 151.62 76.93Q151.62 76.54 151.82 75.99Q152.01 75.45 152.70 74.51Q153.39 73.56 154.83 71.95Q155.97 70.65 156.42 69.93Q156.88 69.21 156.88 68.86Q156.88 68.65 156.72 68.49Q156.56 68.33 156.13 68.33Q155.78 68.33 155.24 68.58Q154.70 68.83 153.74 69.55Q152.60 70.41 151.06 71.99Q149.51 73.56 147.63 75.93L146.27 77.72Q145.92 77.65 145.44 77.65Q144.92 77.65 144.57 77.70Q144.21 77.75 144.05 77.79Q144.91 76.74 145.39 76.15Q145.86 75.57 146.15 75.21Q146.43 74.85 146.70 74.51Q146.96 74.16 147.39 73.61Q147.81 73.05 148.59 72.02Q149.44 70.91 149.85 70.27Q150.27 69.64 150.42 69.31Q150.56 68.98 150.56 68.79Q150.56 68.33 149.85 68.33Q149.48 68.33 148.87 68.59Q148.25 68.84 147.34 69.56Q146.33 70.37 144.80 71.95Q143.27 73.53 141.31 75.93L139.94 77.72Q139.74 77.68 139.53 77.66Q139.31 77.65 139.11 77.65Q138.58 77.65 138.22 77.70Q137.86 77.75 137.72 77.79Q139.36 75.42 140.46 73.86Q141.56 72.30 142.22 71.36Q142.89 70.43 143.22 69.94Q143.55 69.45 143.67 69.23Q143.78 69.02 143.80 68.89Q143.83 68.46 143.47 68.46Q143.27 68.46 142.83 68.87Q142.39 69.28 141.84 69.90Q141.29 70.51 140.76 71.17Q140.24 71.82 139.84 72.30Q139.74 72.36 139.58 72.23Q139.49 72.10 139.53 72.05Q139.96 71.60 140.49 70.92Q141.03 70.24 141.61 69.56Q142.20 68.87 142.82 68.42Q143.43 67.97 144 67.97Q144.43 67.97 144.84 68.15Q145.26 68.33 145.19 69.02Q145.17 69.25 145.04 69.61Q144.91 69.97 144.51 70.53L141.44 74.81L141.51 74.97Q143.56 72.59 144.98 71.15Q146.40 69.71 147.30 69.08Q148.15 68.43 148.78 68.20Q149.42 67.97 150.01 67.97Q150.95 67.97 151.35 68.43Q151.75 68.89 151.72 69.45Q151.69 69.97 151.56 70.40Q151.43 70.82 150.95 71.57Q152.22 70.27 153.23 69.45Q154.33 68.55 155.02 68.26Q155.72 67.97 156.32 67.97Q157.27 67.97 157.66 68.43Q158.05 68.89 158.04 69.45Q158.02 70.03 157.65 70.84Q157.27 71.66 156.37 72.87Q155.47 74.07 153.85 75.85Q153.08 76.64 152.94 76.86Q152.79 77.09 152.79 77.28L152.69 77.30Q152.69 77.65 153.76 77.65Q154.48 77.65 155.33 77.14Q156.17 76.62 157.03 75.85Q157.89 75.07 158.64 74.26Q159.38 73.44 159.90 72.83Q160.41 72.21 160.55 72.05L160.86 72.30Q160.69 72.49 160.15 73.13Q159.62 73.77 158.84 74.59Q158.06 75.42 157.16 76.22Q156.25 77.02 155.33 77.55Q154.40 78.07 153.58 78.07M161.62 78.09Q160.19 78.09 159.57 77.34Q158.96 76.59 158.93 75.51Q158.91 74.72 159.25 73.75Q159.59 72.79 159.95 72.27Q161.04 70.76 162.30 69.81Q163.56 68.86 164.77 68.41Q165.97 67.97 166.90 67.97Q167.79 67.97 168.15 68.26Q168.51 68.55 168.52 68.93Q168.57 69.50 167.92 70.26Q167.26 71.01 165.64 71.89Q164.01 72.77 161.10 73.74Q160.58 74.56 160.41 75.15Q160.23 75.74 160.23 76.21Q160.23 76.90 160.69 77.28Q161.16 77.66 161.79 77.66Q163.16 77.66 164.37 77.14Q165.58 76.62 166.58 75.83Q167.59 75.04 168.35 74.23Q169.11 73.42 169.59 72.81Q170.08 72.20 170.24 72.05L170.54 72.30Q170.33 72.49 169.81 73.14Q169.29 73.78 168.49 74.62Q167.69 75.45 166.65 76.24Q165.61 77.03 164.34 77.56Q163.07 78.09 161.62 78.09M161.43 73.22Q164.28 72.23 165.92 71.17Q167.56 70.10 167.56 69.14Q167.56 68.32 166.79 68.32Q165.81 68.32 164.67 69.37Q163.53 70.43 162 72.43Q161.68 72.84 161.43 73.22M169.18 78.03Q168.57 78.03 168.16 77.69Q167.76 77.34 167.76 76.84Q167.76 76.45 167.86 76.07Q167.95 75.70 168.28 75.11Q168.61 74.51 169.29 73.50Q169.96 72.49 171.12 70.82L182.44 54.64Q182.64 54.65 182.96 54.68Q183.27 54.71 183.86 54.69Q183.98 54.69 184.13 54.67Q184.29 54.65 184.48 54.64L172.43 71.35Q171.12 73.20 170.37 74.27Q169.62 75.35 169.27 75.91Q168.92 76.48 168.83 76.72Q168.74 76.96 168.74 77.14Q168.74 77.62 169.43 77.62Q170.30 77.62 171.26 77.11Q172.21 76.59 173.15 75.82Q174.09 75.06 174.88 74.25Q175.67 73.44 176.22 72.83Q176.77 72.21 176.95 72.05L177.24 72.30Q177.05 72.49 176.48 73.12Q175.91 73.75 175.07 74.58Q174.24 75.41 173.25 76.20Q172.26 76.99 171.21 77.51Q170.16 78.03 169.18 78.03M168.42 89.53Q167.79 89.53 167.47 89.21Q167.15 88.88 167.15 88.55Q167.15 87.76 168.06 86.80Q168.98 85.84 171.24 84.58Q173.50 83.32 177.52 81.63Q178.73 80.15 180.20 78.28Q181.66 76.40 183.48 74.07L183.32 74.02Q182.50 74.89 181.26 75.82Q180.02 76.75 178.67 77.39Q177.33 78.03 176.14 78.03Q174.50 78.03 174.50 76.81Q174.50 76.29 174.68 75.74Q174.87 75.19 175.40 74.31Q175.94 73.43 177 71.92Q177.68 71.10 178.62 70.13Q179.57 69.17 180.67 68.05Q181.14 68.10 181.36 68.12Q181.59 68.14 181.93 68.14Q182.57 68.14 182.97 68.10Q181.96 69.01 181.35 69.64Q180.74 70.28 180.25 70.86Q179.76 71.44 179.07 72.17Q178.73 72.55 178.15 73.20Q177.56 73.84 176.95 74.56Q176.35 75.29 175.93 75.93Q175.51 76.58 175.51 76.97Q175.51 77.46 175.77 77.55Q176.04 77.65 176.26 77.65Q177.58 77.65 178.98 76.89Q180.37 76.14 181.66 74.99Q182.95 73.84 183.93 72.64Q185.43 71 186.33 69.91Q187.23 68.83 187.82 68.10Q187.98 68.13 188.23 68.16Q188.47 68.20 188.72 68.20Q188.91 68.20 189.25 68.19Q189.59 68.17 189.78 68.14L184.68 74.43Q183.29 76.32 182.10 77.90Q180.90 79.48 179.86 80.80Q181.88 79.83 183.25 78.97Q184.62 78.12 185.68 77.17Q186.73 76.23 187.79 75Q188.84 73.77 190.25 72.05L190.55 72.30Q189.34 73.77 188.38 74.87Q187.42 75.96 186.54 76.83Q185.66 77.69 184.67 78.43Q183.67 79.17 182.40 79.89Q181.12 80.61 179.35 81.44Q177.28 84.05 175.77 85.65Q174.25 87.24 173.05 88.09Q171.85 88.93 170.75 89.23Q169.65 89.53 168.42 89.53M168.48 89.13Q169.30 89.13 170.09 88.84Q170.88 88.55 171.83 87.81Q172.77 87.07 174.02 85.72Q175.28 84.37 177 82.26Q173.67 83.68 171.59 84.80Q169.52 85.91 168.57 86.81Q167.62 87.71 167.62 88.55Q167.62 88.71 167.82 88.92Q168.03 89.13 168.48 89.13"/>
</svg>
